<svg width="20" height="20" viewBox="0 0 20 20" fill="none" xmlns="http://www.w3.org/2000/svg">
<path d="M10.5882 1.57895C10.5882 1.43936 10.5263 1.30549 10.4159 1.20679C10.3056 1.10808 10.156 1.05263 10 1.05263C9.84399 1.05263 9.69437 1.10808 9.58405 1.20679C9.47374 1.30549 9.41177 1.43936 9.41177 1.57895V3.18947C6.76471 3.45263 4.70588 5.45263 4.70588 7.89474V14.1158L2.83529 15.7895H17.1647L15.2941 14.1158V7.89474C15.2941 5.45263 13.2353 3.45263 10.5882 3.18947V1.57895ZM10 0C10.468 0 10.9169 0.166353 11.2478 0.462463C11.5788 0.758573 11.7647 1.16018 11.7647 1.57895V2.32632C14.4824 3.01053 16.4706 5.26316 16.4706 7.89474V13.6842L20 16.8421H0L3.52941 13.6842V7.89474C3.52941 5.26316 5.51765 3.01053 8.23529 2.32632V1.57895C8.23529 1.16018 8.42122 0.758573 8.75216 0.462463C9.08311 0.166353 9.53197 0 10 0ZM10 20C9.32197 20.0001 8.66471 19.7906 8.13947 19.407C7.61422 19.0234 7.25325 18.4891 7.11765 17.8947H8.34118C8.46217 18.2019 8.68671 18.4679 8.98382 18.6561C9.28093 18.8443 9.63598 18.9454 10 18.9454C10.364 18.9454 10.7191 18.8443 11.0162 18.6561C11.3133 18.4679 11.5378 18.2019 11.6588 17.8947H12.8824C12.7467 18.4891 12.3858 19.0234 11.8605 19.407C11.3353 19.7906 10.678 20.0001 10 20Z" fill="#222222"/>
</svg>
