<svg width="100" height="100" viewBox="0 0 100 100" fill="none" xmlns="http://www.w3.org/2000/svg">
<path d="M65.625 62.5C64.7962 62.5 64.0013 62.8292 63.4153 63.4153C62.8292 64.0013 62.5 64.7962 62.5 65.625C62.5 66.4538 62.8292 67.2487 63.4153 67.8347C64.0013 68.4208 64.7962 68.75 65.625 68.75H78.125C78.9538 68.75 79.7487 68.4208 80.3347 67.8347C80.9208 67.2487 81.25 66.4538 81.25 65.625C81.25 64.7962 80.9208 64.0013 80.3347 63.4153C79.7487 62.8292 78.9538 62.5 78.125 62.5H65.625ZM6.25 34.375C6.25 30.231 7.8962 26.2567 10.8265 23.3265C13.7567 20.3962 17.731 18.75 21.875 18.75H78.125C82.269 18.75 86.2433 20.3962 89.1735 23.3265C92.1038 26.2567 93.75 30.231 93.75 34.375V65.625C93.75 69.769 92.1038 73.7433 89.1735 76.6735C86.2433 79.6038 82.269 81.25 78.125 81.25H21.875C17.731 81.25 13.7567 79.6038 10.8265 76.6735C7.8962 73.7433 6.25 69.769 6.25 65.625V34.375ZM87.5 37.5V34.375C87.5 31.8886 86.5123 29.504 84.7541 27.7459C82.996 25.9877 80.6114 25 78.125 25H21.875C19.3886 25 17.004 25.9877 15.2459 27.7459C13.4877 29.504 12.5 31.8886 12.5 34.375V37.5H87.5ZM12.5 43.75V65.625C12.5 68.1114 13.4877 70.496 15.2459 72.2541C17.004 74.0123 19.3886 75 21.875 75H78.125C80.6114 75 82.996 74.0123 84.7541 72.2541C86.5123 70.496 87.5 68.1114 87.5 65.625V43.75H12.5Z" fill="black"/>
</svg>
