<svg width="102" height="100" viewBox="0 0 102 100" fill="none" xmlns="http://www.w3.org/2000/svg">
<path d="M17 19H45.1542C46.7963 18.9998 48.4223 19.3232 49.9394 19.9516C51.4565 20.58 52.8349 21.5012 53.9958 22.6625L67 35.6667M29.5 56.5H17M44.0833 31.5L52.4167 39.8333C52.9638 40.3805 53.3979 41.0301 53.694 41.745C53.9901 42.4599 54.1426 43.2262 54.1426 44C54.1426 44.7738 53.9901 45.5401 53.694 46.255C53.3979 46.9699 52.9638 47.6195 52.4167 48.1667C51.8695 48.7138 51.2199 49.1479 50.505 49.444C49.7901 49.7401 49.0238 49.8926 48.25 49.8926C47.4762 49.8926 46.7099 49.7401 45.995 49.444C45.2801 49.1479 44.6305 48.7138 44.0833 48.1667L37.8333 41.9167C34.25 45.5 28.5708 45.9042 24.5125 42.8625L23.25 41.9167" stroke="black" stroke-width="1.5" stroke-linecap="round" stroke-linejoin="round"/>
<path d="M29.5 46.0833V64.8333C29.5 72.6917 29.5 76.6167 31.9417 79.0583C34.3833 81.5 38.3083 81.5 46.1667 81.5H83.6667C91.525 81.5 95.45 81.5 97.8917 79.0583C100.333 76.6167 100.333 72.6917 100.333 64.8333V52.3333C100.333 44.475 100.333 40.55 97.8917 38.1083C95.45 35.6667 91.525 35.6667 83.6667 35.6667H48.25" stroke="black" stroke-width="1.5" stroke-linecap="round" stroke-linejoin="round"/>
<path d="M72.2083 58.5833C72.2083 60.5172 71.4401 62.3719 70.0727 63.7393C68.7052 65.1068 66.8505 65.875 64.9167 65.875C62.9828 65.875 61.1281 65.1068 59.7607 63.7393C58.3932 62.3719 57.625 60.5172 57.625 58.5833C57.625 56.6495 58.3932 54.7948 59.7607 53.4273C61.1281 52.0599 62.9828 51.2917 64.9167 51.2917C66.8505 51.2917 68.7052 52.0599 70.0727 53.4273C71.4401 54.7948 72.2083 56.6495 72.2083 58.5833Z" stroke="black" stroke-width="1.5" stroke-linecap="round" stroke-linejoin="round"/>
</svg>
