<svg width="30" height="30" viewBox="0 0 30 30" fill="none" xmlns="http://www.w3.org/2000/svg">
<path fill-rule="evenodd" clip-rule="evenodd" d="M7.5 13.5C8.29565 13.5 9.05871 13.1839 9.62132 12.6213C10.1839 12.0587 10.5 11.2956 10.5 10.5C10.5 9.70435 10.1839 8.94129 9.62132 8.37868C9.05871 7.81607 8.29565 7.5 7.5 7.5C6.70435 7.5 5.94129 7.81607 5.37868 8.37868C4.81607 8.94129 4.5 9.70435 4.5 10.5C4.5 11.2956 4.81607 12.0587 5.37868 12.6213C5.94129 13.1839 6.70435 13.5 7.5 13.5ZM7.5 15C8.09095 15 8.67611 14.8836 9.22208 14.6575C9.76804 14.4313 10.2641 14.0998 10.682 13.682C11.0998 13.2641 11.4313 12.768 11.6575 12.2221C11.8836 11.6761 12 11.0909 12 10.5C12 9.90905 11.8836 9.32389 11.6575 8.77792C11.4313 8.23196 11.0998 7.73588 10.682 7.31802C10.2641 6.90016 9.76804 6.56869 9.22208 6.34254C8.67611 6.1164 8.09095 6 7.5 6C6.30653 6 5.16193 6.47411 4.31802 7.31802C3.47411 8.16193 3 9.30653 3 10.5C3 11.6935 3.47411 12.8381 4.31802 13.682C5.16193 14.5259 6.30653 15 7.5 15Z" fill="black"/>
<path fill-rule="evenodd" clip-rule="evenodd" d="M5.781 13.344C5.85085 13.4137 5.90626 13.4964 5.94407 13.5876C5.98188 13.6787 6.00134 13.7764 6.00134 13.875C6.00134 13.9737 5.98188 14.0713 5.94407 14.1625C5.90626 14.2536 5.85085 14.3363 5.781 14.406L5.274 14.9115C4.2983 15.8875 3.75013 17.211 3.75 18.591V21.375C3.75 21.5739 3.67098 21.7647 3.53033 21.9053C3.38968 22.046 3.19891 22.125 3 22.125C2.80109 22.125 2.61032 22.046 2.46967 21.9053C2.32902 21.7647 2.25 21.5739 2.25 21.375V18.591C2.25021 16.8132 2.95648 15.1082 4.2135 13.851L4.719 13.344C4.78867 13.2742 4.87143 13.2187 4.96255 13.1809C5.05367 13.1431 5.15135 13.1237 5.25 13.1237C5.34865 13.1237 5.44633 13.1431 5.53745 13.1809C5.62857 13.2187 5.71133 13.2742 5.781 13.344ZM23.469 12.894C23.3992 12.9637 23.3437 13.0464 23.3059 13.1376C23.2681 13.2287 23.2487 13.3263 23.2487 13.425C23.2487 13.5237 23.2681 13.6213 23.3059 13.7125C23.3437 13.8036 23.3992 13.8863 23.469 13.956L23.976 14.4615C24.9517 15.4375 25.4999 16.761 25.5 18.141V21.375C25.5 21.5739 25.579 21.7647 25.7197 21.9053C25.8603 22.046 26.0511 22.125 26.25 22.125C26.4489 22.125 26.6397 22.046 26.7803 21.9053C26.921 21.7647 27 21.5739 27 21.375V18.141C26.9998 16.3632 26.2935 14.6582 25.0365 13.401L24.531 12.894C24.4613 12.8242 24.3786 12.7687 24.2874 12.7309C24.1963 12.6931 24.0987 12.6737 24 12.6737C23.9013 12.6737 23.8037 12.6931 23.7126 12.7309C23.6214 12.7687 23.5387 12.8242 23.469 12.894Z" fill="black"/>
<path fill-rule="evenodd" clip-rule="evenodd" d="M21 13.5C20.2044 13.5 19.4413 13.1839 18.8787 12.6213C18.3161 12.0587 18 11.2956 18 10.5C18 9.70435 18.3161 8.94129 18.8787 8.37868C19.4413 7.81607 20.2044 7.5 21 7.5C21.7956 7.5 22.5587 7.81607 23.1213 8.37868C23.6839 8.94129 24 9.70435 24 10.5C24 11.2956 23.6839 12.0587 23.1213 12.6213C22.5587 13.1839 21.7956 13.5 21 13.5ZM21 15C20.4091 15 19.8239 14.8836 19.2779 14.6575C18.732 14.4313 18.2359 14.0998 17.818 13.682C17.4002 13.2641 17.0687 12.768 16.8425 12.2221C16.6164 11.6761 16.5 11.0909 16.5 10.5C16.5 9.90905 16.6164 9.32389 16.8425 8.77792C17.0687 8.23196 17.4002 7.73588 17.818 7.31802C18.2359 6.90016 18.732 6.56869 19.2779 6.34254C19.8239 6.1164 20.4091 6 21 6C22.1935 6 23.3381 6.47411 24.182 7.31802C25.0259 8.16193 25.5 9.30653 25.5 10.5C25.5 11.6935 25.0259 12.8381 24.182 13.682C23.3381 14.5259 22.1935 15 21 15ZM14.25 19.875C13.2554 19.875 12.3016 20.2701 11.5983 20.9733C10.8951 21.6766 10.5 22.6304 10.5 23.625V25.575C10.5 25.7739 10.421 25.9647 10.2803 26.1053C10.1397 26.246 9.94891 26.325 9.75 26.325C9.55109 26.325 9.36032 26.246 9.21967 26.1053C9.07902 25.9647 9 25.7739 9 25.575V23.625C9 22.2326 9.55312 20.8973 10.5377 19.9127C11.5223 18.9281 12.8576 18.375 14.25 18.375C15.6424 18.375 16.9777 18.9281 17.9623 19.9127C18.9469 20.8973 19.5 22.2326 19.5 23.625V25.575C19.5 25.7739 19.421 25.9647 19.2803 26.1053C19.1397 26.246 18.9489 26.325 18.75 26.325C18.5511 26.325 18.3603 26.246 18.2197 26.1053C18.079 25.9647 18 25.7739 18 25.575V23.625C18 23.1325 17.903 22.6449 17.7145 22.1899C17.5261 21.735 17.2499 21.3216 16.9017 20.9733C16.5534 20.6251 16.14 20.3489 15.6851 20.1605C15.2301 19.972 14.7425 19.875 14.25 19.875Z" fill="black"/>
<path fill-rule="evenodd" clip-rule="evenodd" d="M14.25 17.625C15.0456 17.625 15.8087 17.3089 16.3713 16.7463C16.9339 16.1837 17.25 15.4206 17.25 14.625C17.25 13.8294 16.9339 13.0663 16.3713 12.5037C15.8087 11.9411 15.0456 11.625 14.25 11.625C13.4544 11.625 12.6913 11.9411 12.1287 12.5037C11.5661 13.0663 11.25 13.8294 11.25 14.625C11.25 15.4206 11.5661 16.1837 12.1287 16.7463C12.6913 17.3089 13.4544 17.625 14.25 17.625ZM14.25 19.125C15.4435 19.125 16.5881 18.6509 17.432 17.807C18.2759 16.9631 18.75 15.8185 18.75 14.625C18.75 13.4315 18.2759 12.2869 17.432 11.443C16.5881 10.5991 15.4435 10.125 14.25 10.125C13.0565 10.125 11.9119 10.5991 11.068 11.443C10.2241 12.2869 9.75 13.4315 9.75 14.625C9.75 15.8185 10.2241 16.9631 11.068 17.807C11.9119 18.6509 13.0565 19.125 14.25 19.125Z" fill="black"/>
</svg>
